# xmcd CD database file
#
# Track frame offsets:
#	150
#	37430
#	62407
#	81552
#	107405
#	128547
#	150182
#	175607
#	202130
#	228575
#	250347
#	284967
#	305720
#
# Disc length: 4333 seconds
#
# Revision: 0
# Processed by: cddbd v1.5PL3 Copyright (c) Steve Scherf et al.
# Submitted via: CDex 1.50beta10
#
DISCID=ba10eb0d
DTITLE=Clark Terry - Jazz Matinee
DYEAR=1900
DGENRE=Jazz
TTITLE0=The Zinger
TTITLE1=Easy does it
TTITLE2=Come sunday
TTITLE3=A penny for your thoughts
TTITLE4=Jenny
TTITLE5=C.T.´s Express
TTITLE6=Big Bad Blues
TTITLE7=Dues Blues
TTITLE8=Tee Pee Time
TTITLE9=Sheba
TTITLE10=Cold Tater STomp
TTITLE11=Just Squeeze me
TTITLE12=Mumbles Returns
EXTD=
EXTT0=
EXTT1=
EXTT2=
EXTT3=
EXTT4=
EXTT5=
EXTT6=
EXTT7=
EXTT8=
EXTT9=
EXTT10=
EXTT11=
EXTT12=
PLAYORDER=
